<svg xmlns="http://www.w3.org/2000/svg" width="499" height="218" viewBox="0 0 499 218">
  <g fill="none" fill-rule="evenodd" transform="translate(24 24)">
    <g transform="translate(196 44)">
      <path fill="#000" d="M32.736,47.408 C31.744,42.448 27.652,36 16.988,36 C8.68,36 1.674,41.952 1.674,49.764 C1.674,56.398 6.2,60.924 13.206,62.35 L19.344,63.59 C22.754,64.272 24.676,66.256 24.676,68.798 C24.676,71.898 22.134,74.192 17.546,74.192 C11.346,74.192 8.308,70.286 7.936,65.946 L0,68.054 C0.682,74.316 5.828,81.818 17.484,81.818 C27.714,81.818 33.356,74.998 33.356,68.24 C33.356,62.04 29.078,56.832 21.08,55.282 L14.942,54.104 C11.718,53.484 10.168,51.562 10.168,49.144 C10.168,46.23 12.896,43.564 17.05,43.564 C22.63,43.564 24.614,47.346 25.048,49.764 L32.736,47.408 Z M70.5918953,51.384 L59.8038953,51.384 L49.2638953,62.73 L49.2638953,37 L41.0178953,37 L41.0178953,81.888 L49.2638953,81.888 L49.2638953,73.828 L52.6738953,70.232 L60.7338953,81.888 L70.8398953,81.888 L58.3778953,64.218 L70.5918953,51.384 Z M81.6637905,62.164 L95.3037905,62.164 C95.1797905,59.126 93.1957905,56.15 88.4837905,56.15 C84.2057905,56.15 81.8497905,59.374 81.6637905,62.164 Z M96.1097905,70.1 L102.991791,72.146 C101.441791,77.416 96.6057905,81.818 89.1037905,81.818 C80.7337905,81.818 73.3557905,75.804 73.3557905,65.512 C73.3557905,55.778 80.5477905,49.454 88.3597905,49.454 C97.7837905,49.454 103.425791,55.468 103.425791,65.264 C103.425791,66.442 103.301791,67.682 103.301791,67.806 L81.4777905,67.806 C81.6637905,71.836 85.0737905,74.75 89.1657905,74.75 C93.0097905,74.75 95.1177905,72.828 96.1097905,70.1 Z M119.519686,81.888 L119.519686,37 L111.273686,37 L111.273686,81.888 L119.519686,81.888 Z M135.675581,62.164 L149.315581,62.164 C149.191581,59.126 147.207581,56.15 142.495581,56.15 C138.217581,56.15 135.861581,59.374 135.675581,62.164 Z M150.121581,70.1 L157.003581,72.146 C155.453581,77.416 150.617581,81.818 143.115581,81.818 C134.745581,81.818 127.367581,75.804 127.367581,65.512 C127.367581,55.778 134.559581,49.454 142.371581,49.454 C151.795581,49.454 157.437581,55.468 157.437581,65.264 C157.437581,66.442 157.313581,67.682 157.313581,67.806 L135.489581,67.806 C135.675581,71.836 139.085581,74.75 143.177581,74.75 C147.021581,74.75 149.129581,72.828 150.121581,70.1 Z M175.451985,41.7680049 L168.011985,41.7680049 L168.011985,46.0460049 C168.011985,48.7740049 166.523985,50.8820049 163.299985,50.8820049 L161.749985,50.8820049 L161.749985,58.1980049 L167.267985,58.1980049 L167.267985,72.3960049 C167.267985,78.2860049 170.987985,81.8200049 176.939985,81.8200049 C179.357985,81.8200049 180.845985,81.3860049 181.589985,81.0760049 L181.589985,74.2560049 C181.155985,74.3800049 180.039985,74.5040049 179.047985,74.5040049 C176.691985,74.5040049 175.451985,73.6360049 175.451985,70.9700049 L175.451985,58.1980049 L181.589985,58.1980049 L181.589985,50.8820049 L175.451985,50.8820049 L175.451985,41.7680049 Z M203.327372,74.316 C207.357372,74.316 211.077372,71.402 211.077372,65.636 C211.077372,59.87 207.357372,56.956 203.327372,56.956 C199.297372,56.956 195.577372,59.87 195.577372,65.636 C195.577372,71.34 199.297372,74.316 203.327372,74.316 Z M203.327372,49.454 C212.441372,49.454 219.323372,56.212 219.323372,65.636 C219.323372,74.998 212.441372,81.818 203.327372,81.818 C194.213372,81.818 187.331372,74.998 187.331372,65.636 C187.331372,56.212 194.213372,49.454 203.327372,49.454 Z M235.417267,64.342 C235.417267,60.808 237.525267,58.018 241.121267,58.018 C245.089267,58.018 246.763267,60.684 246.763267,64.094 L246.763267,81.888 L255.009267,81.888 L255.009267,62.668 C255.009267,55.972 251.537267,50.578 243.973267,50.578 C240.687267,50.578 237.029267,52.004 235.169267,55.166 L235.169267,51.384 L227.171267,51.384 L227.171267,81.888 L235.417267,81.888 L235.417267,64.342 Z"/>
      <path fill="#0D1F3B" d="M2.646,9.342 L6.48,9.342 C8.775,9.342 10.179,8.073 10.179,6.102 C10.179,4.077 8.775,2.781 6.48,2.781 L2.646,2.781 L2.646,9.342 Z M6.966,11.718 L2.646,11.718 L2.646,19.548 L0,19.548 L0,0.405 L6.966,0.405 C10.503,0.405 12.879,2.862 12.879,6.075 C12.879,9.315 10.503,11.718 6.966,11.718 Z M20.9136315,17.685 C23.0736315,17.685 24.9636315,16.065 24.9636315,13.041 C24.9636315,10.044 23.0736315,8.424 20.9136315,8.424 C18.7536315,8.424 16.8636315,10.044 16.8636315,13.041 C16.8636315,16.065 18.7536315,17.685 20.9136315,17.685 Z M20.9136315,6.156 C24.8016315,6.156 27.5556315,9.099 27.5556315,13.041 C27.5556315,17.01 24.8016315,19.953 20.9136315,19.953 C17.0256315,19.953 14.2716315,17.01 14.2716315,13.041 C14.2716315,9.099 17.0256315,6.156 20.9136315,6.156 Z M33.9162629,19.548 L31.3782629,19.548 L31.3782629,0 L33.9162629,0 L33.9162629,19.548 Z M42.0588944,24.975 L39.2778944,24.975 L42.5178944,18.117 L36.9288944,6.561 L39.8448944,6.561 L43.8948944,15.525 L47.7828944,6.561 L50.5098944,6.561 L42.0588944,24.975 Z M56.0335259,19.548 L53.5225259,19.548 L53.5225259,6.561 L55.9525259,6.561 L55.9525259,8.289 C56.7625259,6.858 58.3825259,6.183 59.8945259,6.183 C61.5145259,6.183 63.0805259,6.966 63.7825259,8.64 C64.8085259,6.777 66.4825259,6.183 68.1295259,6.183 C70.3975259,6.183 72.6115259,7.722 72.6115259,11.124 L72.6115259,19.548 L70.1005259,19.548 L70.1005259,11.394 C70.1005259,9.693 69.2635259,8.424 67.3465259,8.424 C65.5645259,8.424 64.3495259,9.828 64.3495259,11.691 L64.3495259,19.548 L61.8115259,19.548 L61.8115259,11.394 C61.8115259,9.72 61.0015259,8.424 59.0575259,8.424 C57.2485259,8.424 56.0335259,9.774 56.0335259,11.718 L56.0335259,19.548 Z M78.8911573,11.718 L85.9921573,11.718 C85.9381573,9.855 84.7231573,8.397 82.4281573,8.397 C80.2951573,8.397 78.9991573,10.044 78.8911573,11.718 Z M86.3701573,15.093 L88.5571573,15.849 C87.8281573,18.144 85.7491573,19.953 82.7251573,19.953 C79.2421573,19.953 76.1911573,17.415 76.1911573,13.014 C76.1911573,8.937 79.1341573,6.156 82.4011573,6.156 C86.3971573,6.156 88.6381573,8.91 88.6381573,12.96 C88.6381573,13.284 88.6111573,13.608 88.5841573,13.77 L78.8101573,13.77 C78.8641573,16.092 80.5381573,17.712 82.7251573,17.712 C84.8311573,17.712 85.8841573,16.551 86.3701573,15.093 Z M99.6697888,6.426 L99.6697888,9.126 C99.2917888,9.072 98.9137888,9.045 98.5627888,9.045 C96.4297888,9.045 94.9987888,10.179 94.9987888,13.041 L94.9987888,19.548 L92.4607888,19.548 L92.4607888,6.561 L94.9447888,6.561 L94.9447888,8.829 C95.8897888,6.831 97.5097888,6.345 98.8327888,6.345 C99.1837888,6.345 99.5347888,6.399 99.6697888,6.426 Z"/>
    </g>
    <rect width="170" height="170" fill="#000"/>
    <g transform="matrix(0 -1 -1 0 126 145)">
      <g fill-rule="nonzero" transform="translate(24)">
        <polygon fill="#FF2563" points="47.308 81.924 .074 .278 23.692 .278 70.926 81.924"/>
        <polygon fill="#FFF" fill-opacity=".2" points="47.308 81.924 59.116 61.513 70.926 81.924"/>
        <polygon fill="#FFF" fill-opacity=".1" points="35.5 61.513 47.308 81.924 59.116 61.513"/>
        <polygon fill="#000" fill-opacity=".1" points="23.692 41.101 35.5 61.513 47.308 41.101 23.692 41.101"/>
        <polygon fill="#000" fill-opacity=".2" points="23.692 41.101 35.5 20.69 47.308 41.101 23.692 41.101"/>
        <polygon fill="#000" fill-opacity=".3" points="11.884 20.69 23.692 41.101 35.5 20.69 11.885 20.69"/>
        <polygon fill="#000" fill-opacity=".4" points="23.692 .278 35.5 20.69 11.885 20.69"/>
        <polygon fill="#000" fill-opacity=".5" points=".074 .278 11.884 20.69 23.692 .278 .074 .278"/>
      </g>
      <g transform="translate(0 20.253)">
        <polygon fill="#FFF" fill-rule="nonzero" points="24.074 61.671 .455 20.848 12.266 .436 47.692 61.671 24.074 61.671"/>
        <polygon fill="#FFF" fill-opacity=".2" fill-rule="nonzero" points="24.074 61.671 35.884 41.26 47.692 61.671 24.074 61.671"/>
        <polygon fill="#FFF" fill-opacity=".1" fill-rule="nonzero" points="12.266 41.26 24.074 61.671 35.884 41.26"/>
        <polygon points="12.266 41.26 24.074 20.848 35.884 41.26"/>
        <polygon fill="#000" fill-opacity=".1" fill-rule="nonzero" points=".455 20.848 12.266 41.26 24.074 20.848 .456 20.848"/>
        <polygon fill="#000" fill-opacity=".2" fill-rule="nonzero" points=".455 20.848 12.266 .436 24.074 20.848 .456 20.848"/>
      </g>
      <g fill-rule="nonzero" transform="translate(11.992)">
        <polygon fill="#FFF" points="12.082 41.101 .274 20.69 12.081 .278 23.892 20.69" opacity=".85"/>
        <polygon fill="#000" fill-opacity=".2" points="23.892 20.69 12.082 .278 .274 20.69"/>
      </g>
      <g fill-rule="nonzero" transform="translate(83.023 40.967)">
        <polygon fill="#FFF" points="11.903 40.958 .092 20.546 11.903 .134 23.711 20.546 11.903 40.958" opacity=".85"/>
        <polygon fill="#000" fill-opacity=".2" points="23.711 20.546 11.903 40.958 .092 20.546"/>
      </g>
      <g fill-rule="nonzero" transform="translate(71.031)">
        <polygon fill="#FFF" points="35.703 61.513 .277 .278 23.895 .278 47.514 41.101 35.704 61.513"/>
        <polygon fill="#FFF" fill-opacity=".2" points="23.895 41.101 35.703 61.513 47.514 41.101 23.895 41.101"/>
        <polygon fill="#FFF" fill-opacity=".1" points="23.895 41.101 35.703 20.69 47.514 41.101 23.895 41.101"/>
        <polygon fill="#000" fill-opacity=".1" points="12.084 20.69 23.895 .278 35.703 20.69"/>
        <polygon fill="#000" fill-opacity=".2" points=".277 .278 12.084 20.69 23.896 .278"/>
      </g>
    </g>
  </g>
</svg>
