<?xml version="1.0" encoding="utf-8"?>
<!-- Generator: Adobe Illustrator 22.0.1, SVG Export Plug-In . SVG Version: 6.00 Build 0)  -->
<svg version="1.1" id="Layer_1" xmlns="http://www.w3.org/2000/svg" xmlns:xlink="http://www.w3.org/1999/xlink" x="0px" y="0px"
	 viewBox="0 0 499 218" style="enable-background:new 0 0 499 218;" xml:space="preserve">
<style type="text/css">
	.st0{fill:#09162A;}
	.st1{enable-background:new    ;}
	.st2{fill:#0D1F3B;}
	.st3{fill:#BEF6E9;}
	.st4{fill:#142D55;}
	.st5{fill:#FFFFFF;fill-opacity:0.2;}
	.st6{fill:#FFFFFF;fill-opacity:0.1;}
	.st7{fill-opacity:0.1;}
	.st8{fill-opacity:0.2;}
	.st9{fill-opacity:0.3;}
	.st10{fill-opacity:0.4;}
	.st11{fill-opacity:0.5;}
	.st12{fill:none;}
</style>
<title>Artboard</title>
<desc>Created with Sketch.</desc>
<g id="Page-1">
	<g id="Artboard">
		<g id="Group-3" transform="translate(24.000000, 24.000000)">
			<g id="Group-5" transform="translate(194.000000, 25.000000)">
				<path id="Skeleton" class="st0" d="M34.6,67.5c-1-5-5.1-11.4-15.7-11.4c-8.3,0-15.3,6-15.3,13.8c0,6.6,4.5,11.2,11.5,12.6
					l6.1,1.2c3.4,0.7,5.3,2.7,5.3,5.2c0,3.1-2.5,5.4-7.1,5.4c-6.2,0-9.2-3.9-9.6-8.2l-7.9,2.1c0.7,6.3,5.8,13.8,17.5,13.8
					c10.2,0,15.9-6.8,15.9-13.6c0-6.2-4.3-11.4-12.3-13l-6.1-1.2c-3.2-0.6-4.8-2.5-4.8-5c0-2.9,2.7-5.6,6.9-5.6c5.6,0,7.6,3.8,8,6.2
					L34.6,67.5z M72.5,71.5H61.7L51.1,82.8V57.1h-8.2V102h8.2v-8.1l3.4-3.6l8.1,11.7h10.1L60.2,84.3L72.5,71.5z M83.5,82.3h13.6
					c-0.1-3-2.1-6-6.8-6C86.1,76.3,83.7,79.5,83.5,82.3z M98,90.2l6.9,2c-1.6,5.3-6.4,9.7-13.9,9.7c-8.4,0-15.7-6-15.7-16.3
					c0-9.7,7.2-16.1,15-16.1c9.4,0,15.1,6,15.1,15.8c0,1.2-0.1,2.4-0.1,2.5H83.3c0.2,4,3.6,6.9,7.7,6.9C94.9,94.9,97,92.9,98,90.2z
					 M121.4,102V57.1h-8.2V102H121.4z M137.5,82.3h13.6c-0.1-3-2.1-6-6.8-6C140.1,76.3,137.7,79.5,137.5,82.3z M152,90.2l6.9,2
					c-1.6,5.3-6.4,9.7-13.9,9.7c-8.4,0-15.7-6-15.7-16.3c0-9.7,7.2-16.1,15-16.1c9.4,0,15.1,6,15.1,15.8c0,1.2-0.1,2.4-0.1,2.5
					h-21.8c0.2,4,3.6,6.9,7.7,6.9C148.9,94.9,151,92.9,152,90.2z M177.3,61.9h-7.4v4.3c0,2.7-1.5,4.8-4.7,4.8h-1.6v7.3h5.5v14.2
					c0,5.9,3.7,9.4,9.7,9.4c2.4,0,3.9-0.4,4.6-0.7v-6.8c-0.4,0.1-1.6,0.2-2.5,0.2c-2.4,0-3.6-0.9-3.6-3.5V78.3h6.1V71h-6.1V61.9z
					 M205.2,94.4c4,0,7.8-2.9,7.8-8.7s-3.7-8.7-7.8-8.7s-7.8,2.9-7.8,8.7C197.4,91.5,201.2,94.4,205.2,94.4z M205.2,69.6
					c9.1,0,16,6.8,16,16.2c0,9.4-6.9,16.2-16,16.2s-16-6.8-16-16.2C189.2,76.3,196.1,69.6,205.2,69.6z M237.3,84.5
					c0-3.5,2.1-6.3,5.7-6.3c4,0,5.6,2.7,5.6,6.1V102h8.2V82.8c0-6.7-3.5-12.1-11-12.1c-3.3,0-6.9,1.4-8.8,4.6v-3.8h-8V102h8.2V84.5z
					"/>
				<g class="st1">
					<path class="st2" d="M5.1,19.2V27H2.4V7.9h7c3.5,0,5.9,2.5,5.9,5.7c0,3.2-2.4,5.6-5.9,5.6H5.1z M8.9,16.8
						c2.3,0,3.7-1.3,3.7-3.2c0-2-1.4-3.3-3.7-3.3H5.1v6.6H8.9z"/>
					<path class="st2" d="M30,20.5c0,4-2.8,6.9-6.6,6.9c-3.9,0-6.6-2.9-6.6-6.9c0-3.9,2.8-6.9,6.6-6.9C27.2,13.6,30,16.6,30,20.5z
						 M27.4,20.5c0-3-1.9-4.6-4-4.6c-2.2,0-4,1.6-4,4.6c0,3,1.9,4.6,4,4.6C25.5,25.1,27.4,23.5,27.4,20.5z"/>
					<path class="st2" d="M33.8,27V7.5h2.5V27H33.8z"/>
					<path class="st2" d="M41.7,32.4l3.2-6.9L39.3,14h2.9l4,9l3.9-9h2.7l-8.4,18.4H41.7z"/>
					<path class="st2" d="M55.9,27V14h2.4v1.7c0.8-1.4,2.4-2.1,3.9-2.1c1.6,0,3.2,0.8,3.9,2.5c1-1.9,2.7-2.5,4.3-2.5
						c2.3,0,4.5,1.5,4.5,4.9V27h-2.5v-8.2c0-1.7-0.8-3-2.8-3c-1.8,0-3,1.4-3,3.3V27h-2.5v-8.2c0-1.7-0.8-3-2.8-3c-1.8,0-3,1.3-3,3.3
						V27H55.9z"/>
					<path class="st2" d="M90.9,23.3c-0.7,2.3-2.8,4.1-5.8,4.1c-3.5,0-6.5-2.5-6.5-6.9c0-4.1,2.9-6.9,6.2-6.9c4,0,6.2,2.8,6.2,6.8
						c0,0.3,0,0.6-0.1,0.8h-9.8c0.1,2.3,1.7,3.9,3.9,3.9c2.1,0,3.2-1.2,3.6-2.6L90.9,23.3z M88.3,19.2c-0.1-1.9-1.3-3.3-3.6-3.3
						c-2.1,0-3.4,1.6-3.5,3.3H88.3z"/>
					<path class="st2" d="M102,16.6c-0.4-0.1-0.8-0.1-1.1-0.1c-2.1,0-3.6,1.1-3.6,4V27h-2.5V14h2.5v2.3c0.9-2,2.6-2.5,3.9-2.5
						c0.4,0,0.7,0.1,0.8,0.1V16.6z"/>
				</g>
			</g>
			<g id="Group-2">
				<rect id="Rectangle" class="st3" width="170" height="170"/>
				
					<g id="polymer-2" transform="translate(85.500000, 85.000000) scale(-1, 1) rotate(-90.000000) translate(-85.500000, -85.000000) translate(25.500000, 43.500000)">
					<g id="Group-4" transform="translate(24.000000, 0.000000)">
						<polygon id="Shape" class="st4" points="47.3,81.9 0.1,0.3 23.7,0.3 70.9,81.9 						"/>
						<polygon id="Shape_1_" class="st5" points="47.3,81.9 59.1,61.5 70.9,81.9 						"/>
						<polygon id="Shape_2_" class="st6" points="35.5,61.5 47.3,81.9 59.1,61.5 						"/>
						<polygon id="Shape_3_" class="st7" points="23.7,41.1 35.5,61.5 47.3,41.1 						"/>
						<polygon id="Shape_4_" class="st8" points="23.7,41.1 35.5,20.7 47.3,41.1 						"/>
						<polygon id="Shape_5_" class="st9" points="11.9,20.7 23.7,41.1 35.5,20.7 11.9,20.7 						"/>
						<polygon id="Shape_6_" class="st10" points="23.7,0.3 35.5,20.7 11.9,20.7 						"/>
						<polygon id="Shape_7_" class="st11" points="0.1,0.3 11.9,20.7 23.7,0.3 0.1,0.3 						"/>
					</g>
					<g id="Group" transform="translate(0.000000, 20.253234)">
						<polygon id="Shape_8_" class="st4" points="24.1,61.7 0.5,20.8 12.3,0.4 47.7,61.7 24.1,61.7 						"/>
						<polygon id="Shape_9_" class="st5" points="24.1,61.7 35.9,41.3 47.7,61.7 24.1,61.7 						"/>
						<polygon id="Shape_10_" class="st6" points="12.3,41.3 24.1,61.7 35.9,41.3 						"/>
						<polygon id="Shape_11_" class="st12" points="12.3,41.3 24.1,20.8 35.9,41.3 						"/>
						<polygon id="Shape_12_" class="st7" points="0.5,20.8 12.3,41.3 24.1,20.8 0.5,20.8 						"/>
						<polygon id="Shape_13_" class="st8" points="0.5,20.8 12.3,0.4 24.1,20.8 0.5,20.8 						"/>
					</g>
					<g id="Group_1_" transform="translate(11.992248, 0.000000)">
						<polygon id="Shape_14_" class="st4" points="12.1,41.1 0.3,20.7 12.1,0.3 23.9,20.7 						"/>
						<polygon id="Shape_15_" class="st8" points="23.9,20.7 12.1,0.3 0.3,20.7 						"/>
					</g>
					<g id="Group_2_" transform="translate(83.023256, 40.966769)">
						<polygon id="Shape_16_" class="st4" points="11.9,41 0.1,20.5 11.9,0.1 23.7,20.5 						"/>
						<polygon id="Shape_17_" class="st8" points="23.7,20.5 11.9,41 0.1,20.5 						"/>
					</g>
					<g id="Group_3_" transform="translate(71.031008, -0.000000)">
						<polygon id="Shape_18_" class="st4" points="35.7,61.5 0.3,0.3 23.9,0.3 47.5,41.1 35.7,61.5 						"/>
						<polygon id="Shape_19_" class="st5" points="23.9,41.1 35.7,61.5 47.5,41.1 						"/>
						<polygon id="Shape_20_" class="st6" points="23.9,41.1 35.7,20.7 47.5,41.1 						"/>
						<polygon id="Shape_21_" class="st7" points="12.1,20.7 23.9,0.3 35.7,20.7 						"/>
						<polygon id="Shape_22_" class="st8" points="0.3,0.3 12.1,20.7 23.9,0.3 						"/>
					</g>
				</g>
			</g>
		</g>
	</g>
</g>
</svg>
